<svg xmlns="http://www.w3.org/2000/svg" xmlns:xlink="http://www.w3.org/1999/xlink" width="32" height="32.001" viewBox="0 0 32 32.001">
  <defs>
    <linearGradient id="linear-gradient" x1="0.664" y1="0.163" x2="0.129" y2="1" gradientUnits="objectBoundingBox">
      <stop offset="0" stop-color="#bede19"/>
      <stop offset="1" stop-color="#4bbc39"/>
    </linearGradient>
    <linearGradient id="linear-gradient-2" y1="0.5" x2="1" y2="0.5" gradientUnits="objectBoundingBox">
      <stop offset="0" stop-color="#ee3a43"/>
      <stop offset="1" stop-color="#f38288"/>
    </linearGradient>
  </defs>
  <g id="Group_10565" data-name="Group 10565" transform="translate(3207 122.734)">
    <path id="Union_5" data-name="Union 5" d="M8.586,19.8a.294.294,0,0,1-.166-.147l-.32-.84a2.255,2.255,0,0,0,2-.782l.349.793c.105.255-.354.686-.609.791l-.425.176a1.315,1.315,0,0,1-.447.07A1.053,1.053,0,0,1,8.586,19.8ZM5.437,18.04l-.173-.421c-.105-.255-.121-.887.134-.992l.741-.282a2.249,2.249,0,0,0,.824,1.985l-.732.323a.213.213,0,0,1-.082.015C5.892,18.668,5.531,18.272,5.437,18.04Zm1.623-.95a1.411,1.411,0,1,1,1.317.9A1.413,1.413,0,0,1,7.06,17.089Zm3.414-1.326a2.234,2.234,0,0,0-.58-.847l1.752-.668,2.964-1.129,3.147-1.2a2.815,2.815,0,0,1,1.959-2.888c1.535-.632,4.318-.714,4.95.82s-1.407,3.433-2.943,4.065a2.835,2.835,0,0,1-3.382-.618l-3.054,1.349L12.3,15.969l-1.68.743A2.234,2.234,0,0,0,10.474,15.764ZM3.682,7.2a2.169,2.169,0,0,1-.817-.1,2.979,2.979,0,0,1-1.793-1.79C-.17,2.286-.358,1.658.641,1.108L2.15,4.574a.335.335,0,0,0,.178.178.272.272,0,0,0,.217,0l.1-.038a.3.3,0,0,0,.153-.156.348.348,0,0,0,0-.259L1.626.668c.077-.032.151-.06.234-.1L2.249.41,3.984,3.831A.337.337,0,0,0,4.157,4a.285.285,0,0,0,.217,0l.1-.038a.273.273,0,0,0,.153-.157.336.336,0,0,0,0-.255L3.267.046C4.275-.2,4.549.47,5.749,3.387a2.917,2.917,0,0,1-.121,2.719,2.283,2.283,0,0,1-.546.577l3.379,7.646a2.253,2.253,0,0,0-1.775.765Zm14.042.554A12.761,12.761,0,0,0,9.052,3.732V5.009a.662.662,0,0,1-.531.663.638.638,0,0,1-.745-.629V1.419a.549.549,0,0,1,.539-.55A15.592,15.592,0,0,1,20.028,6.092a.787.787,0,0,1-.1,1.178l-.8.6a1.05,1.05,0,0,1-1.4-.117Z" transform="translate(-3199.783 -122.734)" fill="url(#linear-gradient)"/>
    <path id="Path_240" data-name="Path 240" d="M435.76,307.053a.687.687,0,0,1,1.013.118c.279.387.578.8.862,1.194a.663.663,0,0,1-.1.882,12.691,12.691,0,0,0-4.085,8.779l1.228-.04a.637.637,0,0,1,.653.72.66.66,0,0,1-.645.55l-1.226.04c0,.055,0,.111.007.166a12.825,12.825,0,0,0,11.315,11.789c.266.029.53.048.794.062l-.036-1.11a.662.662,0,0,1,.5-.679.643.643,0,0,1,.778.6l.038,1.19a12.785,12.785,0,0,0,12.14-11.969h-1.217a.661.661,0,0,1-.663-.528.636.636,0,0,1,.629-.742h3.53a.566.566,0,0,1,.568.559,15.611,15.611,0,1,1-26.08-11.58Z" transform="translate(-3637.615 -424.877)" fill="url(#linear-gradient-2)"/>
  </g>
</svg>
